<svg width="11" height="22" viewBox="0 0 11 22" fill="none" xmlns="http://www.w3.org/2000/svg">
<path d="M9.1263 5.50002V16.0417C9.1263 18.0675 7.48547 19.7084 5.45964 19.7084C3.4338 19.7084 1.79297 18.0675 1.79297 16.0417V4.58335C1.79297 3.31835 2.81964 2.29169 4.08464 2.29169C5.34964 2.29169 6.3763 3.31835 6.3763 4.58335V14.2084C6.3763 14.7125 5.9638 15.125 5.45964 15.125C4.95547 15.125 4.54297 14.7125 4.54297 14.2084V5.50002H3.16797V14.2084C3.16797 15.4734 4.19464 16.5 5.45964 16.5C6.72464 16.5 7.7513 15.4734 7.7513 14.2084V4.58335C7.7513 2.55752 6.11047 0.916687 4.08464 0.916687C2.0588 0.916687 0.417969 2.55752 0.417969 4.58335V16.0417C0.417969 18.8284 2.67297 21.0834 5.45964 21.0834C8.2463 21.0834 10.5013 18.8284 10.5013 16.0417V5.50002H9.1263Z" fill="black" fill-opacity="0.54"/>
</svg>
