<svg width="20" height="20" viewBox="0 0 20 20" fill="none" xmlns="http://www.w3.org/2000/svg">
<path d="M9.98953 0.833313C4.92953 0.833313 0.832031 4.93998 0.832031 9.99998C0.832031 15.06 4.92953 19.1666 9.98953 19.1666C15.0587 19.1666 19.1654 15.06 19.1654 9.99998C19.1654 4.93998 15.0587 0.833313 9.98953 0.833313ZM9.9987 17.3333C5.94703 17.3333 2.66536 14.0516 2.66536 9.99998C2.66536 5.94831 5.94703 2.66665 9.9987 2.66665C14.0504 2.66665 17.332 5.94831 17.332 9.99998C17.332 14.0516 14.0504 17.3333 9.9987 17.3333ZM13.207 9.08331C13.9679 9.08331 14.582 8.46915 14.582 7.70831C14.582 6.94748 13.9679 6.33331 13.207 6.33331C12.4462 6.33331 11.832 6.94748 11.832 7.70831C11.832 8.46915 12.4462 9.08331 13.207 9.08331ZM6.79036 9.08331C7.5512 9.08331 8.16536 8.46915 8.16536 7.70831C8.16536 6.94748 7.5512 6.33331 6.79036 6.33331C6.02953 6.33331 5.41536 6.94748 5.41536 7.70831C5.41536 8.46915 6.02953 9.08331 6.79036 9.08331ZM9.9987 15.0416C12.1345 15.0416 13.9495 13.7033 14.6829 11.8333H5.31453C6.04786 13.7033 7.86286 15.0416 9.9987 15.0416Z" fill="black" fill-opacity="0.54"/>
</svg>
